<svg xmlns="http://www.w3.org/2000/svg" xmlns:svg="http://www.w3.org/2000/svg" xmlns:xlink="http://www.w3.org/1999/xlink" version="1.0" height="870pt" width="1320.0000000000002pt" viewBox="465 -2.999999999999943 1328.0000000000002 876" ><defs><style type="text/css">
            @font-face {
                font-family: 'lt_regular';
                src: url('https://app.creately.com/diagram/assets/fonts/lato/lt-regular-webfont.woff2') format('woff2'),
                    url('https://app.creately.com/diagram/assets/fonts/lato/lt-regular-webfont.woff') format('woff');
                font-weight: normal;
                font-style: normal;
            }
            @font-face {
                font-family: 'noto_regular';
                src: url('https://app.creately.com/diagram/assets/fonts/noto/noto-regular.woff') format('woff'),
                     url('https://app.creately.com/diagram/assets/fonts/noto/noto-regular.woff2') format('woff2');
                font-weight: normal;
                font-style: normal;
            }
        p {
            margin: 0;
        }
        </style></defs><defs><style>
            span{ display: inline-block; }
        </style></defs><g id="coTxuQxFG8G"><g transform="translate(900.0000000000002 250.00000000000006)"><path d="M 74.99999999999999,0 L 0,49.99999999999999 L 74.99999999999999,99.99999999999999 L 149.99999999999997,49.99999999999999 L 74.99999999999999,0 Z" fill="rgb(52,64,87)" stroke="#344057" stroke-width="2" stroke-linecap="round" stroke-linejoin="round" stroke-dasharray="0 0"/></g><g transform="translate(931.0000000000002, 290.00000000000006) rotate(0, 44, 10)" width="88" height="20"><text text-decoration="none" x="0.5" fill="rgb(255, 255, 255)" font-size="10pt" font-family="lt_regular"  y="15">Update/Delete</text><text text-decoration="none" x="87.5" fill="#4b4b4b" font-size="10pt" font-family="noto_regular"  y="15"></text></g></g><g id="SPdJweFspjz"><g transform="translate(680.0000000000002 270.00000000000006)"><rect x="0" y="0" width="130" height="60" fill="rgb(241,191,49)" stroke="#f1bf31" stroke-width="2" stroke-linecap="round" stroke-linejoin="round" stroke-dasharray="0 0"/></g><g transform="translate(726.0000000000002, 290.00000000000006) rotate(0, 19, 10)" width="38" height="20"><text text-decoration="none" x="0.5" fill="rgb(255, 255, 255)" font-size="10pt" font-family="lt_regular"  y="15">Admin</text><text text-decoration="none" x="37.5" fill="#4b4b4b" font-size="10pt" font-family="noto_regular"  y="15"></text></g></g><g id="AbS6otyGe0Z"><g><path d="M 900,300 L 810,300" fill="none" stroke="#7E7E7E" stroke-width="2" stroke-linecap="round" stroke-linejoin="round"/></g></g><g id="NB5ggVVBt7y"><g transform="translate(780.0000000000002 109.99999999999994)"><ellipse cx="65" cy="25.00000000000001" rx="65" ry="25.00000000000001" fill="rgb(56,128,189)" stroke="#3880bd" stroke-width="2" stroke-linecap="round" stroke-linejoin="round" stroke-dasharray="0 0"/></g><g transform="translate(817.0000000000002, 124.99999999999994) rotate(0, 28, 10)" width="56" height="20"><text text-decoration="none" x="0.5" fill="#ffffff" font-size="10pt" font-family="lt_regular"  y="15">Password</text><text text-decoration="none" x="55.5" fill="#4b4b4b" font-size="10pt" font-family="noto_regular"  y="15"></text></g></g><g id="O2Jv9Lk3O5E"><g transform="translate(580 109.99999999999994)"><ellipse cx="65" cy="25.00000000000001" rx="65" ry="25.00000000000001" fill="rgb(56,128,189)" stroke="#3880bd" stroke-width="2" stroke-linecap="round" stroke-linejoin="round" stroke-dasharray="0 0"/></g><g transform="translate(614, 124.99999999999994) rotate(0, 31, 10)" width="62" height="20"><text text-decoration="none" x="0" fill="#ffffff" font-size="10pt" font-family="lt_regular"  y="15">User&#160;</text><text text-decoration="none" x="31" fill="#ffffff" font-size="10pt" font-family="lt_regular"  y="15">name</text><text text-decoration="none" x="62" fill="#4b4b4b" font-size="10pt" font-family="noto_regular"  y="15"></text></g></g><g id="nafmvzlQuxD"><g><path d="M 745,270 L 645,160" fill="none" stroke="#7E7E7E" stroke-width="2" stroke-linecap="round" stroke-linejoin="round"/></g></g><g id="9R6HnbIHP9B"><g><path d="M 845,160 L 745,270" fill="none" stroke="#7E7E7E" stroke-width="2" stroke-linecap="round" stroke-linejoin="round"/></g></g><g id="b7f4sy5pNi8"><g transform="translate(600 469.99999999999994)"><path d="M 74.99999999999999,0 L 0,49.99999999999999 L 74.99999999999999,99.99999999999999 L 149.99999999999997,49.99999999999999 L 74.99999999999999,0 Z" fill="rgb(52,64,87)" stroke="#344057" stroke-width="2" stroke-linecap="round" stroke-linejoin="round" stroke-dasharray="0 0"/></g><g transform="translate(643.5, 509.9999999999999) rotate(0, 31.5, 10)" width="63" height="20"><text text-decoration="none" x="0.5" fill="rgb(255, 255, 255)" font-size="10pt" font-family="lt_regular"  y="15">Respondes</text><text text-decoration="none" x="62.5" fill="#4b4b4b" font-size="10pt" font-family="noto_regular"  y="15"></text></g></g><g id="vXWXoaoWzEm"><g><path d="M 675,470 L 675,400 L 710,400 L 745,400 L 745,330" fill="none" stroke="#7E7E7E" stroke-width="2" stroke-linecap="round" stroke-linejoin="round"/></g></g><g id="s39GbbjjYx3"><g transform="translate(600 670.0000000000002)"><rect x="0" y="0" width="150.0000000000001" height="80" fill="rgb(241,191,49)" stroke="#f1bf31" stroke-width="2" stroke-linecap="round" stroke-linejoin="round" stroke-dasharray="0 0"/></g><g transform="translate(617.5, 700.0000000000002) rotate(0, 57.5, 10)" width="115" height="20"><text text-decoration="none" x="1.5" fill="rgb(255, 255, 255)" font-size="10pt" font-family="lt_regular"  y="15">Feedback/Question</text><text text-decoration="none" x="113.5" fill="#4b4b4b" font-size="10pt" font-family="noto_regular"  y="15"></text></g></g><g id="PJXBztc4OJH"><g><path d="M 675,670 L 675,570" fill="none" stroke="#7E7E7E" stroke-width="2" stroke-linecap="round" stroke-linejoin="round"/></g></g><g id="FDEdzsKTG3L"><g transform="translate(610.0000000000002 820)"><ellipse cx="65" cy="25.00000000000001" rx="65" ry="25.00000000000001" fill="rgb(56,128,189)" stroke="#3880bd" stroke-width="2" stroke-linecap="round" stroke-linejoin="round" stroke-dasharray="0 0"/></g><g transform="translate(659.5000000000002, 835) rotate(0, 15.5, 10)" width="31" height="20"><text text-decoration="none" x="0" fill="rgb(255, 255, 255)" font-size="10pt" font-family="lt_regular"  y="15">Email</text><text text-decoration="none" x="31" fill="#4b4b4b" font-size="10pt" font-family="noto_regular"  y="15"></text></g></g><g id="S23APbb8bWZ"><g transform="translate(470 820)"><ellipse cx="65" cy="25.00000000000001" rx="65" ry="25.00000000000001" fill="rgb(56,128,189)" stroke="#3880bd" stroke-width="2" stroke-linecap="round" stroke-linejoin="round" stroke-dasharray="0 0"/></g><g transform="translate(518, 835) rotate(0, 17, 10)" width="34" height="20"><text text-decoration="none" x="0" fill="rgb(255, 255, 255)" font-size="10pt" font-family="lt_regular"  y="15">Name</text><text text-decoration="none" x="34" fill="#4b4b4b" font-size="10pt" font-family="noto_regular"  y="15"></text></g></g><g id="T7sIh7gX25D"><g transform="translate(750.0000000000002 820)"><ellipse cx="65" cy="25.00000000000001" rx="65" ry="25.00000000000001" fill="rgb(56,128,189)" stroke="#3880bd" stroke-width="2" stroke-linecap="round" stroke-linejoin="round" stroke-dasharray="0 0"/></g><g transform="translate(793.5000000000002, 835) rotate(0, 21.5, 10)" width="43" height="20"><text text-decoration="none" x="0.5" fill="rgb(255, 255, 255)" font-size="10pt" font-family="lt_regular"  y="15">Subject</text><text text-decoration="none" x="42.5" fill="#4b4b4b" font-size="10pt" font-family="noto_regular"  y="15"></text></g></g><g id="xYSOvnLTeww"><g><path d="M 535,820 L 675,750" fill="none" stroke="#7E7E7E" stroke-width="2" stroke-linecap="round" stroke-linejoin="round"/></g></g><g id="iC3ORxHCalz"><g><path d="M 675,820 L 675.0000000000001,795.0000000000001 Q 675.0000000000001,794.9999999999999 675,785 Q 675,775.0000000000002 675,775.0000000000001 L 675,750" fill="none" stroke="#7E7E7E" stroke-width="2" stroke-linecap="round" stroke-linejoin="round"/></g></g><g id="QGQixRjSdjA"><g><path d="M 815,820 L 675,750" fill="none" stroke="#7E7E7E" stroke-width="2" stroke-linecap="round" stroke-linejoin="round"/></g></g><g id="wsxKhvHzVAn"><g transform="translate(910.0000000000002 610.0000000000002)"><path d="M 80.00000000000006,0 L 0,51.66666666666667 L 80.00000000000006,103.33333333333334 L 160.0000000000001,51.66666666666667 L 80.00000000000006,0 Z" fill="rgb(52,64,87)" stroke="#344057" stroke-width="2" stroke-linecap="round" stroke-linejoin="round" stroke-dasharray="0 0"/></g><g transform="translate(975.5000000000003, 651.666666666667) rotate(0, 14.5, 10)" width="29" height="20"><text text-decoration="none" x="0.5" fill="rgb(255, 255, 255)" font-size="10pt" font-family="lt_regular"  y="15">Send</text><text text-decoration="none" x="28.5" fill="#4b4b4b" font-size="10pt" font-family="noto_regular"  y="15"></text></g></g><g id="FoaUDCZ3Nss"><g><path d="M 750,710 L 830,710 L 830,686 L 830,662 L 910,662" fill="none" stroke="#7E7E7E" stroke-width="2" stroke-linecap="round" stroke-linejoin="round"/></g></g><g id="MBGDPNr7F3Q"><g transform="translate(1150 670)"><rect x="0" y="0" width="160" height="79.99999999999999" fill="rgb(241,191,49)" stroke="#f1bf31" stroke-width="2" stroke-linecap="round" stroke-linejoin="round" stroke-dasharray="0 0"/></g><g transform="translate(1201.5, 700) rotate(0, 28.5, 10)" width="57" height="20"><text text-decoration="none" x="0" fill="rgb(255, 255, 255)" font-size="10pt" font-family="lt_regular"  y="15">Customer</text><text text-decoration="none" x="57" fill="#4b4b4b" font-size="10pt" font-family="noto_regular"  y="15"></text></g></g><g id="l6CgzZsGKQq"><g><path d="M 1070,662 L 1110,662 L 1110,686 L 1110,710 L 1150,710" fill="none" stroke="#7E7E7E" stroke-width="2" stroke-linecap="round" stroke-linejoin="round"/></g></g><g id="tgLkIgPjBF9"><g transform="translate(1090 820)"><ellipse cx="65" cy="25.000000000000007" rx="65" ry="25.000000000000007" fill="rgb(56,128,189)" stroke="#3880bd" stroke-width="2" stroke-linecap="round" stroke-linejoin="round" stroke-dasharray="0 0"/></g><g transform="translate(1139.5, 835) rotate(0, 15.5, 10)" width="31" height="20"><text text-decoration="none" x="0" fill="rgb(255, 255, 255)" font-size="10pt" font-family="lt_regular"  y="15">Email</text><text text-decoration="none" x="31" fill="#4b4b4b" font-size="10pt" font-family="noto_regular"  y="15"></text></g></g><g id="1c8ibuQbwAt"><g transform="translate(950 820)"><ellipse cx="65" cy="25.000000000000007" rx="65" ry="25.000000000000007" fill="rgb(56,128,189)" stroke="#3880bd" stroke-width="2" stroke-linecap="round" stroke-linejoin="round" stroke-dasharray="0 0"/></g><g transform="translate(998, 835) rotate(0, 17, 10)" width="34" height="20"><text text-decoration="none" x="0" fill="rgb(255, 255, 255)" font-size="10pt" font-family="lt_regular"  y="15">Name</text><text text-decoration="none" x="34" fill="#4b4b4b" font-size="10pt" font-family="noto_regular"  y="15"></text></g></g><g id="ukblUpP7a0I"><g transform="translate(1230 820)"><ellipse cx="65" cy="25.000000000000007" rx="65" ry="25.000000000000007" fill="rgb(56,128,189)" stroke="#3880bd" stroke-width="2" stroke-linecap="round" stroke-linejoin="round" stroke-dasharray="0 0"/></g><g transform="translate(1273.5, 835) rotate(0, 21.5, 10)" width="43" height="20"><text text-decoration="none" x="0.5" fill="rgb(255, 255, 255)" font-size="10pt" font-family="lt_regular"  y="15">Subject</text><text text-decoration="none" x="42.5" fill="#4b4b4b" font-size="10pt" font-family="noto_regular"  y="15"></text></g></g><g id="FeeY6lu06hB"><g transform="translate(1370 820)"><ellipse cx="65" cy="25.000000000000007" rx="65" ry="25.000000000000007" fill="rgb(56,128,189)" stroke="#3880bd" stroke-width="2" stroke-linecap="round" stroke-linejoin="round" stroke-dasharray="0 0"/></g><g transform="translate(1413.5, 835) rotate(0, 21.5, 10)" width="43" height="20"><text text-decoration="none" x="0.5" fill="rgb(255, 255, 255)" font-size="10pt" font-family="lt_regular"  y="15">Subject</text><text text-decoration="none" x="42.5" fill="#4b4b4b" font-size="10pt" font-family="noto_regular"  y="15"></text></g></g><g id="qP2WECC3tud"><g><path d="M 1015,820 L 1230,750" fill="none" stroke="#7E7E7E" stroke-width="2" stroke-linecap="round" stroke-linejoin="round"/></g></g><g id="uZeg7oO5377"><g><path d="M 1155,820 L 1230,750" fill="none" stroke="#7E7E7E" stroke-width="2" stroke-linecap="round" stroke-linejoin="round"/></g></g><g id="Yb3w1fiQhmg"><g><path d="M 1295,820 L 1230,750" fill="none" stroke="#7E7E7E" stroke-width="2" stroke-linecap="round" stroke-linejoin="round"/></g></g><g id="U85csRF4Glr"><g><path d="M 1435,820 L 1230,750" fill="none" stroke="#7E7E7E" stroke-width="2" stroke-linecap="round" stroke-linejoin="round"/></g></g><g id="nW766m1t7er"><g transform="translate(1150 440.0000000000001)"><path d="M 80.00000000000007,0 L 0,51.66666666666668 L 80.00000000000007,103.33333333333336 L 160.00000000000014,51.66666666666668 L 80.00000000000007,0 Z" fill="rgb(52,64,87)" stroke="#344057" stroke-width="2" stroke-linecap="round" stroke-linejoin="round" stroke-dasharray="0 0"/></g><g transform="translate(1213, 481.6666666666668) rotate(0, 17, 10)" width="34" height="20"><text text-decoration="none" x="0" fill="rgb(255, 255, 255)" font-size="10pt" font-family="lt_regular"  y="15">Order</text><text text-decoration="none" x="34" fill="#4b4b4b" font-size="10pt" font-family="noto_regular"  y="15"></text></g></g><g id="9K62FtQnUeT"><g><path d="M 1230,543 L 1230,670" fill="none" stroke="#7E7E7E" stroke-width="2" stroke-linecap="round" stroke-linejoin="round"/></g></g><g id="Zbjo7LwIGkM"><g transform="translate(1450 270.00000000000006)"><rect x="0" y="0" width="130.00000000000003" height="60" fill="rgb(241,191,49)" stroke="#f1bf31" stroke-width="2" stroke-linecap="round" stroke-linejoin="round" stroke-dasharray="0 0"/></g><g transform="translate(1500, 290.00000000000006) rotate(0, 15, 10)" width="30" height="20"><text text-decoration="none" x="0.5" fill="rgb(255, 255, 255)" font-size="10pt" font-family="lt_regular"  y="15">Book</text><text text-decoration="none" x="29.5" fill="#4b4b4b" font-size="10pt" font-family="noto_regular"  y="15"></text></g></g><g id="W2UkAhFJe6c"><g><path d="M 1050,300 L 1450,300" fill="none" stroke="#7E7E7E" stroke-width="2" stroke-linecap="round" stroke-linejoin="round"/></g></g><g id="7fbKpo2FR0q"><g><path d="M 1230,440 L 1450,300" fill="none" stroke="#7E7E7E" stroke-width="2" stroke-linecap="round" stroke-linejoin="round"/></g></g><g id="CwLmoD2xho4"><g transform="translate(1280 40.00000000000002)"><path d="M 80.00000000000007,0 L 0,51.66666666666668 L 80.00000000000007,103.33333333333336 L 160.00000000000014,51.66666666666668 L 80.00000000000007,0 Z" fill="rgb(52,64,87)" stroke="#344057" stroke-width="2" stroke-linecap="round" stroke-linejoin="round" stroke-dasharray="0 0"/></g><g transform="translate(1339.5, 81.66666666666669) rotate(0, 20.5, 10)" width="41" height="20"><text text-decoration="none" x="1" fill="rgb(255, 255, 255)" font-size="10pt" font-family="lt_regular"  y="15">Belong</text><text text-decoration="none" x="40" fill="#4b4b4b" font-size="10pt" font-family="noto_regular"  y="15"></text></g></g><g id="OB4R6jdscVx"><g><path d="M 1440,92 L 1515,92 L 1515,270" fill="none" stroke="#7E7E7E" stroke-width="2" stroke-linecap="round" stroke-linejoin="round"/></g></g><g id="GMQrWu8QAGk"><g transform="translate(1019.9999999999999 130)"><rect x="0" y="0" width="130.00000000000003" height="60" fill="rgb(241,191,49)" stroke="#f1bf31" stroke-width="2" stroke-linecap="round" stroke-linejoin="round" stroke-dasharray="0 0"/></g><g transform="translate(1058.5, 150) rotate(0, 26.5, 10)" width="53" height="20"><text text-decoration="none" x="0.5" fill="rgb(255, 255, 255)" font-size="10pt" font-family="lt_regular"  y="15">Catagory</text><text text-decoration="none" x="52.5" fill="#4b4b4b" font-size="10pt" font-family="noto_regular"  y="15"></text></g></g><g id="e8kHgXyZsLK"><g><path d="M 1150,160 L 1215,160 L 1215,126 L 1215,92 L 1280,92" fill="none" stroke="#7E7E7E" stroke-width="2" stroke-linecap="round" stroke-linejoin="round"/></g></g><g id="iTN5SejUMjB"><g transform="translate(1130 5.684341886080802e-14)"><ellipse cx="65" cy="25.00000000000001" rx="65" ry="25.00000000000001" fill="rgb(56,128,189)" stroke="#3880bd" stroke-width="2" stroke-linecap="round" stroke-linejoin="round" stroke-dasharray="0 0"/></g><g transform="translate(1168, 15.000000000000068) rotate(0, 27, 10)" width="54" height="20"><text text-decoration="none" x="1" fill="rgb(255, 255, 255)" font-size="10pt" font-family="lt_regular"  y="15">Booktitle</text><text text-decoration="none" x="53" fill="#4b4b4b" font-size="10pt" font-family="noto_regular"  y="15"></text></g></g><g id="qmcbNXy72yv"><g transform="translate(929.9999999999999 5.684341886080802e-14)"><ellipse cx="65" cy="25.00000000000001" rx="65" ry="25.00000000000001" fill="rgb(56,128,189)" stroke="#3880bd" stroke-width="2" stroke-linecap="round" stroke-linejoin="round" stroke-dasharray="0 0"/></g><g transform="translate(978, 15.000000000000068) rotate(0, 17, 10)" width="34" height="20"><text text-decoration="none" x="0" fill="rgb(255, 255, 255)" font-size="10pt" font-family="lt_regular"  y="15">Name</text><text text-decoration="none" x="34" fill="#4b4b4b" font-size="10pt" font-family="noto_regular"  y="15"></text></g></g><g id="ep1ldSIyzrJ"><g><path d="M 1060,25 L 1085,130" fill="none" stroke="#7E7E7E" stroke-width="2" stroke-linecap="round" stroke-linejoin="round"/></g></g><g id="UI0EGBXe7ID"><g><path d="M 1130,25 L 1085,130" fill="none" stroke="#7E7E7E" stroke-width="2" stroke-linecap="round" stroke-linejoin="round"/></g></g><g id="m4tO6LPCnQF"><g transform="translate(1660.0000000000002 150)"><ellipse cx="65" cy="25.000000000000007" rx="65" ry="25.000000000000007" fill="rgb(56,128,189)" stroke="#3880bd" stroke-width="2" stroke-linecap="round" stroke-linejoin="round" stroke-dasharray="0 0"/></g><g transform="translate(1712.0000000000002, 165) rotate(0, 13, 10)" width="26" height="20"><text text-decoration="none" x="0" fill="rgb(255, 255, 255)" font-size="10pt" font-family="lt_regular"  y="15">Title</text><text text-decoration="none" x="26" fill="#4b4b4b" font-size="10pt" font-family="noto_regular"  y="15"></text></g></g><g id="4faS8zxFl8x"><g transform="translate(1660.0000000000002 270.00000000000006)"><ellipse cx="65" cy="25.000000000000007" rx="65" ry="25.000000000000007" fill="rgb(56,128,189)" stroke="#3880bd" stroke-width="2" stroke-linecap="round" stroke-linejoin="round" stroke-dasharray="0 0"/></g><g transform="translate(1710.5000000000002, 285.00000000000006) rotate(0, 14.5, 10)" width="29" height="20"><text text-decoration="none" x="0" fill="#ffffff" font-size="10pt" font-family="lt_regular"  y="15">Price</text><text text-decoration="none" x="29" fill="#4b4b4b" font-size="10pt" font-family="noto_regular"  y="15"></text></g></g><g id="1OI8ibxwK0a"><g transform="translate(1660.0000000000002 210.00000000000006)"><ellipse cx="65" cy="25.000000000000007" rx="65" ry="25.000000000000007" fill="rgb(56,128,189)" stroke="#3880bd" stroke-width="2" stroke-linecap="round" stroke-linejoin="round" stroke-dasharray="0 0"/></g><g transform="translate(1704.5000000000002, 225.00000000000006) rotate(0, 20.5, 10)" width="41" height="20"><text text-decoration="none" x="0.5" fill="rgb(255, 255, 255)" font-size="10pt" font-family="lt_regular"  y="15">Author</text><text text-decoration="none" x="40.5" fill="#4b4b4b" font-size="10pt" font-family="noto_regular"  y="15"></text></g></g><g id="cL8L4vmAk4b"><g transform="translate(1660.0000000000002 330)"><ellipse cx="65" cy="25.000000000000007" rx="65" ry="25.000000000000007" fill="rgb(56,128,189)" stroke="#3880bd" stroke-width="2" stroke-linecap="round" stroke-linejoin="round" stroke-dasharray="0 0"/></g><g transform="translate(1691.5000000000002, 345) rotate(0, 33.5, 10)" width="67" height="20"><text text-decoration="none" x="0.5" fill="rgb(255, 255, 255)" font-size="10pt" font-family="lt_regular"  y="15">Description</text><text text-decoration="none" x="66.5" fill="#4b4b4b" font-size="10pt" font-family="noto_regular"  y="15"></text></g></g><g id="0h8daeLzb9m"><g transform="translate(1660.0000000000002 389.99999999999994)"><ellipse cx="65" cy="25.000000000000007" rx="65" ry="25.000000000000007" fill="rgb(56,128,189)" stroke="#3880bd" stroke-width="2" stroke-linecap="round" stroke-linejoin="round" stroke-dasharray="0 0"/></g><g transform="translate(1719.5000000000002, 404.99999999999994) rotate(0, 5.5, 10)" width="11" height="20"><text text-decoration="none" x="0" fill="rgb(255, 255, 255)" font-size="10pt" font-family="lt_regular"  y="15">Id</text><text text-decoration="none" x="11" fill="#4b4b4b" font-size="10pt" font-family="noto_regular"  y="15"></text></g></g><g id="dNrrazaQLBR"><g><path d="M 1660,175 L 1580,300" fill="none" stroke="#7E7E7E" stroke-width="2" stroke-linecap="round" stroke-linejoin="round"/></g></g><g id="2Y0Teeqh7OS"><g><path d="M 1660,235 L 1580,300" fill="none" stroke="#7E7E7E" stroke-width="2" stroke-linecap="round" stroke-linejoin="round"/></g></g><g id="RYvoAVGem08"><g><path d="M 1660,295 L 1580,300" fill="none" stroke="#7E7E7E" stroke-width="2" stroke-linecap="round" stroke-linejoin="round"/></g></g><g id="PwVQbUnKyTH"><g><path d="M 1660,355 L 1580,300" fill="none" stroke="#7E7E7E" stroke-width="2" stroke-linecap="round" stroke-linejoin="round"/></g></g><g id="t1Phmk98jox"><g><path d="M 1660,415 L 1580,300" fill="none" stroke="#7E7E7E" stroke-width="2" stroke-linecap="round" stroke-linejoin="round"/></g></g><g id="kgjjUNKQLGf"><g transform="translate(1360.0000000000002 440.00000000000006)"><path d="M 80.00000000000007,0 L 0,51.66666666666668 L 80.00000000000007,103.33333333333336 L 160.00000000000014,51.66666666666668 L 80.00000000000007,0 Z" fill="rgb(52,64,87)" stroke="#344057" stroke-width="2" stroke-linecap="round" stroke-linejoin="round" stroke-dasharray="0 0"/></g><g transform="translate(1428.0000000000005, 481.66666666666674) rotate(0, 12, 10)" width="24" height="20"><text text-decoration="none" x="0.5" fill="rgb(255, 255, 255)" font-size="10pt" font-family="lt_regular"  y="15">Add</text><text text-decoration="none" x="23.5" fill="#4b4b4b" font-size="10pt" font-family="noto_regular"  y="15"></text></g></g><g id="eyEbL2Kqndl"><g transform="translate(1460.0000000000002 620.0000000000001)"><rect x="0" y="0" width="130.00000000000003" height="60" fill="rgb(241,191,49)" stroke="#f1bf31" stroke-width="2" stroke-linecap="round" stroke-linejoin="round" stroke-dasharray="0 0"/></g><g transform="translate(1485.5000000000002, 640.0000000000001) rotate(0, 39.5, 10)" width="79" height="20"><text text-decoration="none" x="1" fill="rgb(255, 255, 255)" font-size="10pt" font-family="lt_regular"  y="15">Shopping&#160;</text><text text-decoration="none" x="56" fill="rgb(255, 255, 255)" font-size="10pt" font-family="lt_regular"  y="15">cart</text><text text-decoration="none" x="78" fill="#4b4b4b" font-size="10pt" font-family="noto_regular"  y="15"></text></g></g><g id="ZdlMj3bqhXr"><g><path d="M 1515,330 L 1515,385 L 1478,385 L 1440,385 L 1440,440" fill="none" stroke="#7E7E7E" stroke-width="2" stroke-linecap="round" stroke-linejoin="round"/></g></g><g id="3UZqtM9hnxI"><g><path d="M 1440,543 L 1440,581.5 L 1483,582 L 1525,581.5 L 1525,620" fill="none" stroke="#7E7E7E" stroke-width="2" stroke-linecap="round" stroke-linejoin="round"/></g></g><g id="ivo4gu51G8R"><g transform="translate(1660.0000000000002 500)"><ellipse cx="65" cy="25.000000000000007" rx="65" ry="25.000000000000007" fill="rgb(56,128,189)" stroke="#3880bd" stroke-width="2" stroke-linecap="round" stroke-linejoin="round" stroke-dasharray="0 0"/></g><g transform="translate(1704.0000000000002, 515) rotate(0, 21, 10)" width="42" height="20"><text text-decoration="none" x="0.5" fill="rgb(255, 255, 255)" font-size="10pt" font-family="lt_regular"  y="15">Picture</text><text text-decoration="none" x="41.5" fill="#4b4b4b" font-size="10pt" font-family="noto_regular"  y="15"></text></g></g><g id="2KucqHdK9aa"><g transform="translate(1660.0000000000002 620.0000000000001)"><ellipse cx="65" cy="25.000000000000007" rx="65" ry="25.000000000000007" fill="rgb(56,128,189)" stroke="#3880bd" stroke-width="2" stroke-linecap="round" stroke-linejoin="round" stroke-dasharray="0 0"/></g><g transform="translate(1699.5000000000002, 635.0000000000001) rotate(0, 25.5, 10)" width="51" height="20"><text text-decoration="none" x="0.5" fill="rgb(255, 255, 255)" font-size="10pt" font-family="lt_regular"  y="15">Quantity</text><text text-decoration="none" x="50.5" fill="#4b4b4b" font-size="10pt" font-family="noto_regular"  y="15"></text></g></g><g id="IpkP7RSkhPO"><g transform="translate(1660.0000000000002 560.0000000000001)"><ellipse cx="65" cy="25.000000000000007" rx="65" ry="25.000000000000007" fill="rgb(56,128,189)" stroke="#3880bd" stroke-width="2" stroke-linecap="round" stroke-linejoin="round" stroke-dasharray="0 0"/></g><g transform="translate(1710.5000000000002, 575.0000000000001) rotate(0, 14.5, 10)" width="29" height="20"><text text-decoration="none" x="0" fill="rgb(255, 255, 255)" font-size="10pt" font-family="lt_regular"  y="15">Price</text><text text-decoration="none" x="29" fill="#4b4b4b" font-size="10pt" font-family="noto_regular"  y="15"></text></g></g><g id="Fedi1hmBeia"><g transform="translate(1660.0000000000002 680.0000000000002)"><ellipse cx="65" cy="25.000000000000007" rx="65" ry="25.000000000000007" fill="rgb(56,128,189)" stroke="#3880bd" stroke-width="2" stroke-linecap="round" stroke-linejoin="round" stroke-dasharray="0 0"/></g><g transform="translate(1691.5000000000002, 695.0000000000002) rotate(0, 33.5, 10)" width="67" height="20"><text text-decoration="none" x="0.5" fill="rgb(255, 255, 255)" font-size="10pt" font-family="lt_regular"  y="15">Description</text><text text-decoration="none" x="66.5" fill="#4b4b4b" font-size="10pt" font-family="noto_regular"  y="15"></text></g></g><g id="2kuSbhc5WDp"><g transform="translate(1660.0000000000002 740.0000000000001)"><ellipse cx="65" cy="25.000000000000007" rx="65" ry="25.000000000000007" fill="rgb(56,128,189)" stroke="#3880bd" stroke-width="2" stroke-linecap="round" stroke-linejoin="round" stroke-dasharray="0 0"/></g><g transform="translate(1712.0000000000002, 755.0000000000001) rotate(0, 13, 10)" width="26" height="20"><text text-decoration="none" x="0" fill="rgb(255, 255, 255)" font-size="10pt" font-family="lt_regular"  y="15">Title</text><text text-decoration="none" x="26" fill="#4b4b4b" font-size="10pt" font-family="noto_regular"  y="15"></text></g></g><g id="UplFK3K7ZMP"><g><path d="M 1660,525 L 1590,650" fill="none" stroke="#7E7E7E" stroke-width="2" stroke-linecap="round" stroke-linejoin="round"/></g></g><g id="mCm7tq9h22R"><g><path d="M 1660,585 L 1590,650" fill="none" stroke="#7E7E7E" stroke-width="2" stroke-linecap="round" stroke-linejoin="round"/></g></g><g id="JNVLWAMEpm6"><g><path d="M 1660,645 L 1590,650" fill="none" stroke="#7E7E7E" stroke-width="2" stroke-linecap="round" stroke-linejoin="round"/></g></g><g id="NHieVyOABrc"><g><path d="M 1660,705 L 1590,650" fill="none" stroke="#7E7E7E" stroke-width="2" stroke-linecap="round" stroke-linejoin="round"/></g></g><g id="phIuihUYZA9"><g><path d="M 1660,765 L 1590,650" fill="none" stroke="#7E7E7E" stroke-width="2" stroke-linecap="round" stroke-linejoin="round"/></g></g></svg>